<?xml version="1.0" encoding="utf-8"?>
<!-- Generator: Adobe Illustrator 16.0.0, SVG Export Plug-In . SVG Version: 6.00 Build 0)  -->
<!DOCTYPE svg PUBLIC "-//W3C//DTD SVG 1.1//EN" "http://www.w3.org/Graphics/SVG/1.1/DTD/svg11.dtd">
<svg version="1.1" id="Layer_1" xmlns="http://www.w3.org/2000/svg" xmlns:xlink="http://www.w3.org/1999/xlink" x="0px" y="0px"
	 width="800px" height="800px" viewBox="0 0 800 800" enable-background="new 0 0 800 800" xml:space="preserve">
<g>
	<path d="M146.59,372.73h25.264c15.386,0,25.627,3.744,30.723,11.229c2.597,3.742,4.366,7.874,5.301,12.397
		c0.938,4.524,1.404,10.215,1.404,17.077v29.942c0,13.308-2.783,23.055-8.343,29.241c-5.564,6.186-14.947,9.277-28.147,9.277
		h-26.043c-4.16,0-6.238-2.129-6.238-6.395v-96.53c0-2.287,0.441-3.899,1.326-4.835C142.716,373.2,144.303,372.73,146.59,372.73z
		 M171.854,380.372h-23.546v93.882h24.484c9.875,0,17.152-2.34,21.831-7.019s7.019-12.319,7.019-22.924v-31.347
		c0-11.435-2.082-19.727-6.239-24.873C191.242,382.946,183.394,380.372,171.854,380.372z"/>
	<path d="M239.688,372.73h54.426c0.83,0,1.56,0.312,2.184,0.936c0.622,0.625,0.936,1.352,0.936,2.184v1.404
		c0,0.936-0.313,1.69-0.936,2.259c-0.624,0.574-1.354,0.858-2.184,0.858h-52.867v93.882h52.867c0.83,0,1.56,0.286,2.184,0.857
		c0.622,0.572,0.936,1.324,0.936,2.26v1.404c0,0.835-0.313,1.56-0.936,2.184c-0.624,0.625-1.354,0.936-2.184,0.936h-54.582
		c-2.495,0-4.132-0.547-4.912-1.638c-0.78-1.091-1.168-2.625-1.168-4.601v-96.844c0-2.077,0.466-3.611,1.404-4.6
		C235.791,373.225,237.401,372.73,239.688,372.73z M250.605,421.388h33.373c0.936,0,1.688,0.311,2.26,0.935s0.857,1.353,0.857,2.185
		v1.401c0,2.082-1.041,3.12-3.117,3.12h-33.373c-2.081,0-3.119-1.038-3.119-3.12v-1.401c0-0.832,0.286-1.561,0.857-2.185
		C248.914,421.698,249.67,421.388,250.605,421.388z"/>
	<path d="M380.199,372.73h1.87c2.079,0,3.12,1.041,3.12,3.12c0,0.416-0.052,0.78-0.156,1.091L349.476,477.84
		c-0.935,2.807-2.961,4.21-6.081,4.21c-3.119,0-5.201-1.454-6.239-4.365l-35.868-100.744c-0.101-0.311-0.156-0.675-0.156-1.091
		c0-2.079,1.038-3.12,3.12-3.12h1.871c1.248,0,2.234,0.678,2.963,2.027l34.153,97.313l33.995-97.313
		C377.859,373.408,378.847,372.73,380.199,372.73z"/>
	<path d="M400.937,397.448c0-6.706,2.753-12.553,8.265-17.543c5.509-4.99,13.021-7.486,22.535-7.486s17.518,2.521,24.015,7.563
		s9.955,12.553,10.371,22.535c0,0.833-0.311,1.586-0.935,2.26c-0.625,0.68-1.354,1.016-2.185,1.016h-1.56
		c-0.728,0-1.401-0.286-2.025-0.857c-0.625-0.571-0.991-1.274-1.094-2.106c-0.311-7.899-2.962-13.646-7.952-17.232
		c-4.99-3.588-10.97-5.381-17.934-5.381c-7.485,0-13.31,1.715-17.468,5.146c-4.157,3.433-6.236,7.67-6.236,12.71
		c0,5.045,1.455,9.072,4.366,12.086c4.055,4.056,11.592,8.215,22.613,12.476c13.099,5.2,21.83,10.398,26.198,15.595
		c3.325,3.954,4.99,9.619,4.99,16.999c0,7.384-2.989,13.698-8.967,18.949c-5.98,5.25-14.479,7.873-25.497,7.873
		c-8.214,0-15.96-2.234-23.237-6.705c-3.847-2.39-6.993-5.742-9.434-10.058c-2.445-4.313-3.771-9.28-3.977-14.895
		c0-2.182,1.039-3.275,3.12-3.275h1.401c1.873,0,2.911,0.99,3.12,2.964c0.208,4.576,1.352,8.554,3.431,11.932
		c2.078,3.377,4.679,5.899,7.798,7.563c6.028,3.224,12.656,4.835,19.882,4.835s13.152-1.896,17.779-5.693
		c4.624-3.793,6.94-8.55,6.94-14.27c0-5.82-1.873-10.291-5.614-13.41c-3.017-2.496-6.291-4.625-9.824-6.395
		c-4.577-2.185-11.751-5.249-21.522-9.2c-7.485-3.327-12.919-7.146-16.297-11.462C402.626,409.667,400.937,404.155,400.937,397.448z
		"/>
	<path d="M478.442,372.73h69.238c0.938,0,1.69,0.312,2.262,0.936c0.572,0.625,0.858,1.352,0.858,2.184v1.715
		c0,1.871-1.041,2.806-3.12,2.806h-69.238c-2.081,0-3.12-0.936-3.12-2.806v-1.715c0-0.833,0.313-1.559,0.937-2.184
		C476.883,373.042,477.607,372.73,478.442,372.73z M512.126,384.584h1.56c2.079,0,3.12,0.987,3.12,2.961v91.23
		c0,0.835-0.288,1.56-0.858,2.184c-0.573,0.625-1.325,0.936-2.262,0.936h-1.56c-0.935,0-1.69-0.311-2.262-0.936
		c-0.571-0.624-0.857-1.349-0.857-2.184v-91.23C509.007,385.572,510.045,384.584,512.126,384.584z"/>
	<path d="M590.878,376.786c0.936-2.806,2.937-4.21,6.004-4.21s5.12,1.457,6.16,4.365l35.868,100.744
		c0.102,0.312,0.155,0.677,0.155,1.091c0,2.081-1.04,3.119-3.118,3.119h-1.871c-1.354,0-2.34-0.675-2.964-2.026l-33.995-96.844
		l-34.152,96.844c-0.625,1.352-1.615,2.026-2.964,2.026h-1.871c-2.081,0-3.119-1.038-3.119-3.119c0-0.414,0.05-0.779,0.155-1.091
		L590.878,376.786z M583.549,433.862h26.979c0.829,0,1.559,0.289,2.184,0.857c0.622,0.572,0.936,1.327,0.936,2.263v1.403
		c0,0.936-0.313,1.69-0.936,2.26c-0.625,0.573-1.354,0.857-2.184,0.857h-26.979c-1.976,0-2.964-1.036-2.964-3.117v-1.403
		C580.585,434.903,581.573,433.862,583.549,433.862z"/>
	<path d="M659.651,372.73h51.929c0.938,0,1.689,0.312,2.261,0.936c0.572,0.625,0.858,1.352,0.858,2.184v1.404
		c0,2.079-1.04,3.117-3.119,3.117h-50.059v98.404c0,0.835-0.288,1.56-0.857,2.184c-0.571,0.625-1.324,0.936-2.263,0.936h-1.559
		c-0.936,0-1.69-0.311-2.26-0.936c-0.573-0.624-0.857-1.349-0.857-2.184V378.97c0-1.974,0.361-3.511,1.09-4.601
		C655.541,373.277,657.156,372.73,659.651,372.73z M667.76,421.388h35.088c0.831,0,1.561,0.311,2.183,0.935
		c0.625,0.624,0.938,1.353,0.938,2.185v1.401c0,0.936-0.313,1.692-0.938,2.262c-0.622,0.572-1.352,0.858-2.183,0.858H667.76
		c-1.976,0-2.964-1.038-2.964-3.12v-1.401c0-0.832,0.286-1.561,0.857-2.185C666.226,421.698,666.925,421.388,667.76,421.388z"/>
	<path d="M735.128,372.73h51.93c0.937,0,1.689,0.312,2.262,0.936c0.571,0.625,0.857,1.352,0.857,2.184v1.404
		c0,2.079-1.04,3.117-3.119,3.117H737v98.404c0,0.835-0.289,1.56-0.858,2.184c-0.571,0.625-1.324,0.936-2.263,0.936h-1.56
		c-0.936,0-1.689-0.311-2.259-0.936c-0.574-0.624-0.857-1.349-0.857-2.184V378.97c0-1.974,0.36-3.511,1.091-4.601
		C731.02,373.277,732.634,372.73,735.128,372.73z M743.237,421.388h35.089c0.83,0,1.56,0.311,2.182,0.935
		c0.624,0.624,0.938,1.353,0.938,2.185v1.401c0,0.936-0.313,1.692-0.938,2.262c-0.622,0.572-1.352,0.858-2.182,0.858h-35.089
		c-1.976,0-2.964-1.038-2.964-3.12v-1.401c0-0.832,0.286-1.561,0.858-2.185C741.703,421.698,742.403,421.388,743.237,421.388z"/>
</g>
<g>
	<path d="M137.595,187.875c0,3.374-2.732,6.106-6.113,6.106c-3.371,0-6.108-2.733-6.108-6.106c0-3.375,2.738-6.115,6.108-6.115
		C134.863,181.76,137.595,184.499,137.595,187.875z"/>
	<path d="M161.658,277.501c0,4.501-3.648,8.151-8.151,8.151c-4.498,0-8.147-3.65-8.147-8.151c0-4.498,3.65-8.15,8.147-8.15
		C158.01,269.351,161.658,273.003,161.658,277.501z"/>
	<path d="M62.523,239.477c0,4.5-3.65,8.15-8.151,8.15c-4.5,0-8.146-3.65-8.146-8.15c0-4.497,3.645-8.148,8.146-8.148
		C58.873,231.329,62.523,234.98,62.523,239.477z"/>
	<path d="M193.568,244.906c0,3.375-2.731,6.115-6.111,6.115c-3.375,0-6.11-2.74-6.11-6.115c0-3.373,2.735-6.108,6.11-6.108
		C190.837,238.798,193.568,241.533,193.568,244.906z"/>
	<path d="M21.102,214.354c0,3.374-2.735,6.111-6.115,6.111c-3.371,0-6.104-2.737-6.104-6.111c0-3.375,2.733-6.115,6.104-6.115
		C18.367,208.239,21.102,210.979,21.102,214.354z"/>
	<path d="M17.029,273.424c0,3.382-2.735,6.113-6.113,6.113c-3.374,0-6.108-2.73-6.108-6.113c0-3.369,2.735-6.108,6.108-6.108
		C14.294,267.315,17.029,270.055,17.029,273.424z"/>
	<path d="M131.258,246.098c0,7.114-5.775,12.889-12.89,12.889c-7.112,0-12.884-5.774-12.884-12.889
		c0-7.12,5.772-12.885,12.884-12.885C125.483,233.212,131.258,238.978,131.258,246.098z"/>
</g>
<g>
	<path d="M81.362,328.484c-11.75-2.543-19.823-11.444-18.451-20.1l-17.884,97.92c0.54,6.37,7.206,12.515,16.333,14.49
		c10.492,2.273,20.313-1.81,21.888-9.103l0.407,0.086l22.851-94.078C104.245,326.217,93.163,331.041,81.362,328.484z"/>
	<path d="M60.098,426.604c-7.231-1.564-13.205-5.365-16.927-10.139l-0.945,5.16c1.32,5.847,7.661,11.258,16.121,13.087
		c10.487,2.278,20.31-1.809,21.886-9.102l0.06,0.014l0.429-1.784C75.252,427.07,67.79,428.271,60.098,426.604z"/>
	<path d="M57.084,440.526c-6.979-1.514-12.802-5.104-16.547-9.648L10.303,596.407c-0.064,0.229-0.125,0.46-0.175,0.697
		c-0.048,0.234-0.092,0.47-0.128,0.709l-0.194,0.892l0.082,0.021c-0.666,8.352-0.992,14.914,10.326,17.37
		c11.318,2.453,13.733-3.662,16.587-11.54l0.083,0.022l0.194-0.894c0.069-0.237,0.126-0.469,0.176-0.704
		c0.055-0.238,0.091-0.477,0.131-0.712l39.906-164.287C71.856,441.037,64.581,442.15,57.084,440.526z"/>
	<path d="M88.314,296.375c-12.052-2.614-23.381,2.458-25.302,11.327c-0.048,0.229-0.064,0.453-0.101,0.682
		c-1.373,8.656,6.701,17.556,18.451,20.1c11.8,2.557,22.883-2.267,25.145-10.783c0.05-0.185,0.118-0.356,0.158-0.544
		C108.586,308.292,100.369,298.984,88.314,296.375z"/>
</g>
<g>
	<path d="M271.305,524.142c1.893-0.88,3.572-1.439,5.04-1.68c1.466-0.24,2.906-0.36,4.319-0.36s2.841,0.12,4.28,0.36
		c1.44,0.24,3.026,0.748,4.76,1.521c1.732,0.773,3.293,1.76,4.681,2.96c1.386,1.199,2.612,2.854,3.68,4.96
		c1.066,2.107,1.732,4.547,2,7.319c0,1.174-0.534,1.761-1.6,1.761h-0.721c-0.96,0-1.493-0.48-1.6-1.44
		c-0.268-2.24-0.827-4.213-1.68-5.92c-0.854-1.706-1.841-3.013-2.96-3.92c-1.12-0.906-2.4-1.652-3.841-2.24
		c-2.134-0.906-4.119-1.36-5.96-1.36c-1.84,0-3.359,0.108-4.56,0.32c-1.2,0.214-2.548,0.668-4.04,1.36
		c-1.494,0.693-2.8,1.613-3.92,2.76c-1.12,1.147-2.067,2.76-2.84,4.84c-0.774,2.08-1.16,4.48-1.16,7.2v15.68
		c0,2.721,0.426,5.12,1.28,7.2c0.853,2.08,1.88,3.694,3.08,4.84c1.199,1.147,2.6,2.067,4.199,2.761c2.561,1.119,4.96,1.68,7.2,1.68
		s4.146-0.2,5.72-0.601c1.573-0.399,3.133-1.105,4.681-2.119c3.306-2.08,4.96-5.946,4.96-11.601c0-0.906,0.146-1.492,0.439-1.76
		c0.293-0.267,0.681-0.4,1.16-0.4h0.641c1.065,0,1.6,0.534,1.6,1.601c0,3.254-0.521,6.107-1.561,8.56
		c-1.039,2.454-2.253,4.308-3.64,5.561c-1.388,1.253-3.014,2.253-4.88,3c-2.88,1.119-5.4,1.68-7.56,1.68
		c-2.16,0-4.028-0.133-5.601-0.4c-1.573-0.266-3.334-0.853-5.28-1.76c-1.947-0.906-3.653-2.053-5.119-3.439
		c-1.468-1.387-2.708-3.347-3.721-5.881c-1.014-2.532-1.52-5.426-1.52-8.68v-16.24c0-3.359,0.492-6.319,1.479-8.88
		c0.986-2.56,2.187-4.52,3.601-5.88C267.757,526.142,269.412,525.022,271.305,524.142z"/>
	<path d="M321.185,524.462c1.92-0.826,3.6-1.346,5.04-1.56c1.44-0.213,2.92-0.32,4.44-0.32c1.52,0,3.025,0.12,4.52,0.36
		c1.492,0.239,3.187,0.787,5.08,1.64c1.893,0.854,3.532,1.96,4.92,3.32c1.387,1.359,2.56,3.279,3.52,5.76
		c0.961,2.479,1.44,5.348,1.44,8.6v16.24c0,3.36-0.494,6.32-1.479,8.88c-0.988,2.561-2.188,4.534-3.601,5.92
		c-1.414,1.388-3.054,2.508-4.92,3.36c-2.987,1.334-6.134,2-9.44,2c-3.467,0-6.413-0.586-8.84-1.76
		c-2.427-1.173-4.333-2.453-5.72-3.84c-1.388-1.387-2.56-3.347-3.52-5.881c-0.96-2.532-1.44-5.426-1.44-8.68v-16.24
		c0-3.359,0.492-6.292,1.48-8.8c0.985-2.506,2.172-4.426,3.56-5.76C317.611,526.369,319.265,525.289,321.185,524.462z
		 M338.185,528.063c-1.52-0.667-2.854-1.093-4-1.28c-1.147-0.187-2.32-0.28-3.52-0.28c-1.2,0-2.388,0.094-3.561,0.28
		c-1.174,0.188-2.52,0.613-4.04,1.28c-1.52,0.667-2.84,1.547-3.96,2.64c-1.12,1.094-2.067,2.667-2.84,4.72
		c-0.773,2.054-1.16,4.44-1.16,7.16v15.68c0,2.721,0.387,5.12,1.16,7.2c0.772,2.08,1.732,3.694,2.88,4.84
		c1.146,1.147,2.466,2.067,3.96,2.761c1.492,0.693,2.84,1.147,4.04,1.359c1.2,0.214,2.387,0.32,3.56,0.32s2.36-0.106,3.561-0.32
		c1.2-0.212,2.546-0.666,4.04-1.359c1.492-0.693,2.8-1.613,3.92-2.761c1.12-1.146,2.066-2.76,2.84-4.84
		c0.772-2.08,1.16-4.479,1.16-7.2v-15.68c0-2.72-0.4-5.106-1.2-7.16c-0.8-2.053-1.76-3.626-2.88-4.72
		C341.025,529.609,339.705,528.729,338.185,528.063z"/>
	<path d="M402.7,522.342c0.853,0,1.6,0.28,2.24,0.84c0.64,0.561,0.96,1.428,0.96,2.601v51.2c0,0.427-0.147,0.8-0.44,1.119
		c-0.294,0.32-0.68,0.48-1.16,0.48h-0.72c-0.479,0-0.867-0.16-1.16-0.48c-0.294-0.319-0.439-0.692-0.439-1.119v-47.601l-13.917,34.4
		c-0.588,1.388-1.548,2.16-2.881,2.319c-1.547,0-2.64-0.746-3.279-2.239l-14.721-34.8v47.92c0,0.427-0.159,0.8-0.479,1.119
		c-0.32,0.32-0.693,0.48-1.12,0.48h-0.8c-0.428,0-0.788-0.16-1.08-0.48c-0.294-0.319-0.44-0.692-0.44-1.119v-51.2
		c0-2.293,1.04-3.44,3.12-3.44c1.44,0,2.507,0.8,3.2,2.4l15.36,36.24l14.557-36.24C400.247,523.142,401.313,522.342,402.7,522.342z"
		/>
	<path d="M458.7,522.342c0.853,0,1.6,0.28,2.24,0.84c0.64,0.561,0.96,1.428,0.96,2.601v51.2c0,0.427-0.147,0.8-0.44,1.119
		c-0.294,0.32-0.68,0.48-1.16,0.48h-0.72c-0.479,0-0.867-0.16-1.16-0.48c-0.294-0.319-0.439-0.692-0.439-1.119v-47.601l-13.92,34.4
		c-0.588,1.388-1.548,2.16-2.881,2.319c-1.547,0-2.64-0.746-3.279-2.239l-14.721-34.8v47.92c0,0.427-0.159,0.8-0.479,1.119
		c-0.32,0.32-0.693,0.48-1.12,0.48h-0.8c-0.428,0-0.788-0.16-1.08-0.48c-0.294-0.319-0.44-0.692-0.44-1.119v-51.2
		c0-2.293,1.04-3.44,3.12-3.44c1.44,0,2.507,0.8,3.2,2.4l15.36,36.24l14.56-36.24C456.246,523.142,457.313,522.342,458.7,522.342z"
		/>
	<path d="M510.06,522.582h0.8c0.426,0,0.8,0.16,1.12,0.48c0.319,0.319,0.479,0.693,0.479,1.119v34.32c0,3.84-0.64,7.16-1.92,9.96
		s-2.934,4.894-4.96,6.28c-3.733,2.613-7.548,3.92-11.439,3.92h-0.961c-3.894,0-7.76-1.307-11.6-3.92
		c-2.027-1.387-3.667-3.48-4.92-6.28c-1.254-2.8-1.88-6.12-1.88-9.96v-34.32c0-0.426,0.146-0.8,0.439-1.119
		c0.293-0.32,0.681-0.48,1.16-0.48h0.8c0.48,0,0.867,0.16,1.16,0.48c0.293,0.319,0.44,0.693,0.44,1.119v34.32
		c0,3.147,0.506,5.854,1.52,8.12c1.013,2.268,2.347,3.96,4,5.08c2.88,1.92,5.893,2.934,9.04,3.04h0.721
		c3.04-0.106,6.025-1.146,8.96-3.12c1.6-1.066,2.906-2.732,3.92-5c1.013-2.267,1.52-4.973,1.52-8.12v-34.32
		c0-0.426,0.146-0.8,0.44-1.119C509.191,522.742,509.579,522.582,510.06,522.582z"/>
	<path d="M527.739,522.422c1.439,0,2.56,0.641,3.36,1.92c10.292,17.067,19.76,33.308,28.399,48.721v-48.881
		c0-0.426,0.146-0.8,0.44-1.119c0.292-0.32,0.68-0.48,1.16-0.48h0.8c0.479,0,0.866,0.16,1.16,0.48
		c0.292,0.319,0.439,0.693,0.439,1.119v51.44c0,1.067-0.308,1.854-0.92,2.36c-0.613,0.507-1.479,0.76-2.6,0.76
		s-2.054-0.586-2.801-1.76l-28.399-48.721v48.721c0,0.427-0.16,0.8-0.48,1.119c-0.319,0.32-0.693,0.48-1.12,0.48h-0.88
		c-0.427,0-0.787-0.16-1.08-0.48c-0.293-0.319-0.439-0.692-0.439-1.119v-51.28C524.779,523.516,525.766,522.422,527.739,522.422z"/>
	<path d="M580.138,522.582h0.721c0.426,0,0.8,0.16,1.12,0.48c0.319,0.319,0.479,0.693,0.479,1.119v52.801
		c0,0.427-0.16,0.8-0.479,1.119c-0.32,0.32-0.694,0.48-1.12,0.48h-0.721c-0.479,0-0.867-0.16-1.159-0.48
		c-0.294-0.319-0.44-0.692-0.44-1.119v-52.801c0-0.426,0.146-0.8,0.44-1.119C579.271,522.742,579.658,522.582,580.138,522.582z"/>
	<path d="M594.618,522.582h35.52c0.48,0,0.867,0.16,1.16,0.48c0.293,0.319,0.44,0.693,0.44,1.119v0.881
		c0,0.96-0.534,1.439-1.601,1.439h-35.52c-1.067,0-1.6-0.479-1.6-1.439v-0.881c0-0.426,0.159-0.8,0.479-1.119
		C593.818,522.742,594.19,522.582,594.618,522.582z M611.898,528.662h0.8c1.066,0,1.6,0.508,1.6,1.52v46.801
		c0,0.427-0.147,0.8-0.439,1.119c-0.294,0.32-0.681,0.48-1.16,0.48h-0.8c-0.48,0-0.868-0.16-1.16-0.48
		c-0.294-0.319-0.44-0.692-0.44-1.119v-46.801C610.298,529.17,610.831,528.662,611.898,528.662z"/>
	<path d="M667.979,522.582h0.88c0.64,0,1.066,0.2,1.279,0.6c0.213,0.4,0.32,0.734,0.32,1c0,0.268-0.08,0.534-0.24,0.801v-0.08
		l-13.52,24.64c-0.428,0.64-0.72,1.04-0.88,1.2v26.24c0,0.427-0.16,0.8-0.48,1.119c-0.319,0.32-0.693,0.48-1.12,0.48h-0.8
		c-0.428,0-0.8-0.16-1.12-0.48c-0.319-0.319-0.479-0.692-0.479-1.119v-26.32c-0.268-0.267-0.508-0.586-0.72-0.96l-14.561-24.72
		c-0.16-0.267-0.24-0.533-0.24-0.801c0-0.266,0.107-0.6,0.32-1c0.213-0.399,0.64-0.6,1.28-0.6h0.96c0.532,0,0.986,0.24,1.359,0.72
		l13.601,23.36l12.88-23.6C666.911,522.742,667.338,522.582,667.979,522.582z"/>
</g>
</svg>
