<?xml version="1.0" encoding="utf-8"?>
<!-- Generator: Adobe Illustrator 18.1.1, SVG Export Plug-In . SVG Version: 6.00 Build 0)  -->
<svg version="1.1" id="Layer_1" xmlns="http://www.w3.org/2000/svg" xmlns:xlink="http://www.w3.org/1999/xlink" x="0px" y="0px"
	 viewBox="0 0 612 505" enable-background="new 0 0 612 505" xml:space="preserve">
<circle fill="none" stroke="#4E8EF7" stroke-width="3" stroke-miterlimit="10" cx="305.8" cy="193" r="73.2"/>
<g>
	<path fill="#4E8EF7" d="M188.3,381.8v-58.3h3.1v58.3H188.3z"/>
	<path fill="#4E8EF7" d="M235.2,383.3c-17.5,0-30.7-13.1-30.7-30.6c0-17.4,13.2-30.6,30.7-30.6c17.5,0,30.7,13.2,30.7,30.6
		C265.9,370.2,252.7,383.3,235.2,383.3z M235.2,325c-15.7,0-27.6,11.9-27.6,27.7c0,15.8,11.9,27.7,27.6,27.7
		c15.7,0,27.6-11.9,27.6-27.7C262.8,336.8,250.9,325,235.2,325z"/>
	<path fill="#4E8EF7" d="M329.4,381.8V351c0-10.1-2.8-16.6-7.1-20.6c-3-2.6-7.7-5.5-16.5-5.5c-14.6,0-23.7,8.7-23.7,23.3v33.6h-3.1
		v-58.3h3.1v11.2h0.2c3.6-8.4,13.9-12.6,23.1-12.6c4.1,0,12,0.4,18.6,5.8c5.7,4.8,8.5,12.7,8.5,23.1v30.8H329.4z"/>
	<path fill="#4E8EF7" d="M349.6,381.8v-58.3h3.1v58.3H349.6z"/>
	<path fill="#4E8EF7" d="M422.1,342.5c-4-11.1-14.1-17.5-25.5-17.5c-8.2,0-13.6,2.4-19.7,7.8c-4.7,4.3-8,12-8,19.9
		c0,16.5,12.8,27.7,27.6,27.7c13.2,0,22.7-8.2,25.5-16.9h3.4c-4.1,11.9-15.1,19.8-28.9,19.8c-16.9,0-30.7-12.3-30.7-30.5
		c0-17.3,13-30.7,30.7-30.7c11.9,0,24.4,6.6,29,20.3H422.1z"/>
</g>
<circle fill="#4E8EF7" cx="189.9" cy="305.5" r="3.3"/>
<circle fill="#4E8EF7" cx="351.1" cy="305.5" r="3.3"/>
<circle fill="#4E8EF7" cx="305.8" cy="193" r="30.4"/>
<circle fill="#4E8EF7" cx="357.4" cy="141.4" r="10.5"/>
</svg>
